HIERARCHY
ROOT Hips
{
	OFFSET 48.669399 -16.574514 95.778000
	CHANNELS 6 Xposition Yposition Zposition Xrotation Yrotation Zrotation
	JOINT spine
	{
		OFFSET 0.000000 -0.458069 7.965683
		CHANNELS 3 Xrotation Yrotation Zrotation
		JOINT spine1
		{
			OFFSET 0.000000 -0.000002 10.243103
			CHANNELS 3 Xrotation Yrotation Zrotation
			JOINT spine2
			{
				OFFSET 0.000000 -0.000002 9.814751
				CHANNELS 3 Xrotation Yrotation Zrotation
				JOINT Neck
				{
					OFFSET 0.000000 -1.201384 25.198601
					CHANNELS 3 Xrotation Yrotation Zrotation
					JOINT Head
					{
						OFFSET 0.000000 0.000000 7.613144
						CHANNELS 3 Xrotation Yrotation Zrotation
						End Site
						{
							OFFSET 0.000000 6.077326 18.428101
						}
					}
				}
				JOINT RightShoulder
				{
					OFFSET -4.132702 0.575451 10.599205
					CHANNELS 3 Xrotation Yrotation Zrotation
					JOINT RightArm
					{
						OFFSET 0.000000 -0.000004 13.901794
						CHANNELS 3 Xrotation Yrotation Zrotation
						JOINT RightArmRoll
						{
							OFFSET 0.000000 0.000000 7.017883
							CHANNELS 3 Xrotation Yrotation Zrotation
							JOINT RightForeArm
							{
								OFFSET 0.000000 -0.000004 20.440598
								CHANNELS 3 Xrotation Yrotation Zrotation
								JOINT RightForeArmRoll
								{
									OFFSET 0.000000 -0.000002 7.875153
									CHANNELS 3 Xrotation Yrotation Zrotation
									JOINT RightHand
									{
										OFFSET 0.000000 -0.000002 15.803696
										CHANNELS 3 Xrotation Yrotation Zrotation
										End Site
										{
											OFFSET 0.000000 0.000000 0.100006
										}
									}
								}
							}
						}
					}
				}
				JOINT LeftShoulder
				{
					OFFSET 4.132702 0.575451 10.599205
					CHANNELS 3 Xrotation Yrotation Zrotation
					JOINT LeftArm
					{
						OFFSET 0.000000 -0.000004 13.901794
						CHANNELS 3 Xrotation Yrotation Zrotation
						JOINT LeftArmRoll
						{
							OFFSET 0.000000 0.000000 7.017883
							CHANNELS 3 Xrotation Yrotation Zrotation
							JOINT LeftForeArm
							{
								OFFSET 0.000000 -0.000004 20.440598
								CHANNELS 3 Xrotation Yrotation Zrotation
								JOINT LeftForeArmRoll
								{
									OFFSET 0.000000 -0.000002 7.875153
									CHANNELS 3 Xrotation Yrotation Zrotation
									JOINT LeftHand
									{
										OFFSET 0.000000 -0.000002 15.803696
										CHANNELS 3 Xrotation Yrotation Zrotation
										End Site
										{
											OFFSET 0.000000 0.000000 0.100006
										}
									}
								}
							}
						}
					}
				}
			}
		}
	}
	JOINT RightUpLeg
	{
		OFFSET -7.060482 1.086100 -1.294701
		CHANNELS 3 Xrotation Yrotation Zrotation
		JOINT RightUpLegRoll
		{
			OFFSET 0.000000 -0.000003 18.530800
			CHANNELS 3 Xrotation Yrotation Zrotation
			JOINT RightLeg
			{
				OFFSET 0.000000 0.000004 -22.947601
				CHANNELS 3 Xrotation Yrotation Zrotation
				JOINT RightLegRoll
				{
					OFFSET 0.000000 -0.000004 23.022598
					CHANNELS 3 Xrotation Yrotation Zrotation
					JOINT RightFoot
					{
						OFFSET 0.000000 -0.000004 19.162506
						CHANNELS 3 Xrotation Yrotation Zrotation
						JOINT RightToeBase
						{
							OFFSET 0.000000 -0.000002 16.018799
							CHANNELS 3 Xrotation Yrotation Zrotation
							End Site
							{
								OFFSET 0.006790 0.894204 7.757828
							}
						}
					}
				}
			}
		}
	}
	JOINT LeftUpLeg
	{
		OFFSET 7.060482 1.086100 -1.294701
		CHANNELS 3 Xrotation Yrotation Zrotation
		JOINT LeftUpLegRoll
		{
			OFFSET 0.000000 -0.000003 18.530899
			CHANNELS 3 Xrotation Yrotation Zrotation
			JOINT LeftLeg
			{
				OFFSET 0.000000 -0.000004 22.947502
				CHANNELS 3 Xrotation Yrotation Zrotation
				JOINT LeftLegRoll
				{
					OFFSET 0.000000 -0.000004 23.235504
					CHANNELS 3 Xrotation Yrotation Zrotation
					JOINT LeftFoot
					{
						OFFSET 0.000000 -0.000003 18.949600
						CHANNELS 3 Xrotation Yrotation Zrotation
						JOINT LeftToeBase
						{
							OFFSET 0.000000 -0.000003 16.018799
							CHANNELS 3 Xrotation Yrotation Zrotation
							End Site
							{
								OFFSET -0.030430 0.894205 7.757828
							}
						}
					}
				}
			}
		}
	}
}
MOTION
Frames: 6
Frame Time: 0.041667
53.713898 -15.021017 78.904297 6.224382 -3.512653 1.795692 -1.762257 0.159238 0.266685 0.477590 0.312886 0.536603 2.122643 0.319288 0.532812 12.938488 9.906443 -1.128301 -5.923707 -7.946667 -1.155978 -13.792305 -7.271870 -13.572750 -146.799289 -171.456217 -68.573105 0.000000 0.000012 -0.000000 56.270438 14.346826 9.142922 -0.000001 0.000005 -3.000004 -5.000175 -7.999751 0.000045 -14.057871 18.824884 14.868391 -149.020972 180.540082 82.788320 0.000004 -0.000001 0.000007 58.977147 -13.919921 -6.794264 -0.000006 -0.000008 2.999997 -5.000167 8.000070 -0.000025 -32.726565 -139.427165 5.050524 -179.999991 0.000005 0.221007 129.396322 -0.084417 -2.897789 0.000001 0.000002 -0.447338 79.654513 2.687967 15.938081 25.799604 -7.353796 0.463240 -36.366044 158.213792 3.758531 -0.000018 0.000012 -0.383354 -52.892790 -7.059955 -0.969415 -0.000008 0.000001 -1.349450 82.391472 -3.328234 -14.692871 25.931273 7.352836 -0.614339 
53.598602 -15.025918 79.014694 6.109607 -3.516583 1.720629 -1.731846 0.157197 0.266373 0.538418 0.308956 0.535860 2.183464 0.315350 0.532116 12.890113 10.024897 -1.120273 -6.087252 -8.099636 -1.161342 -13.823213 -7.391259 -13.635102 -146.625392 -171.277758 -68.360385 0.000001 0.000015 0.000001 56.283614 14.370260 9.138622 0.000001 0.000007 -3.000001 -5.000172 -7.999753 0.000043 -14.076776 18.936595 14.902863 -149.022283 180.341747 82.938249 0.000003 -0.000002 0.000006 58.696330 -13.958817 -6.726715 -0.000005 -0.000005 2.999998 -5.000169 8.000070 -0.000025 -32.680095 -139.475659 5.015305 -179.999991 0.000005 0.208997 129.399901 -0.002539 -2.858093 -0.000001 0.000002 -0.431082 79.599311 2.694379 15.896869 25.801215 -7.353803 0.465080 -36.163980 158.101954 3.660079 -0.000021 0.000010 -0.368480 -52.814759 -7.012004 -0.921565 -0.000008 -0.000000 -1.303971 82.386930 -3.292035 -14.821891 25.930362 7.352876 -0.613984 
53.640198 -15.051618 78.929596 5.995336 -3.514818 1.648396 -1.703047 0.154721 0.265597 0.596039 0.304158 0.534188 2.241083 0.310533 0.530503 12.847378 10.129009 -1.113497 -6.230838 -8.240719 -1.166771 -13.852030 -7.524515 -13.695678 -146.442398 -171.097099 -68.165691 0.000001 0.000013 -0.000001 56.288429 14.390831 9.128182 0.000000 0.000006 -3.000004 -5.000172 -7.999751 0.000046 -14.093785 19.050009 14.934239 -149.006710 180.132128 83.082264 0.000005 -0.000001 0.000006 58.427030 -13.994648 -6.661223 -0.000006 -0.000008 2.999998 -5.000171 8.000067 -0.000021 -32.603850 -139.537473 4.994507 -179.999991 0.000001 0.195994 129.431648 0.068591 -2.819590 0.000001 0.000001 -0.412619 79.543092 2.705684 15.837641 25.802537 -7.353817 0.466443 -35.948143 157.987562 3.554648 -0.000019 0.000011 -0.355545 -52.706155 -6.958556 -0.872861 -0.000007 -0.000002 -1.260569 82.367416 -3.260665 -14.923164 25.928853 7.352915 -0.612863 
53.907196 -15.043615 78.979195 5.883821 -3.507740 1.579488 -1.676505 0.152000 0.264216 0.649141 0.298870 0.531311 2.294183 0.305211 0.527690 12.806816 10.216262 -1.107278 -6.345472 -8.366842 -1.170968 -13.877169 -7.671820 -13.751801 -146.251289 -170.913039 -67.995291 -0.000000 0.000014 -0.000000 56.282227 14.408496 9.110659 -0.000000 0.000006 -3.000003 -5.000171 -7.999751 0.000045 -14.109565 19.166639 14.963987 -148.972368 179.914546 83.216095 0.000003 -0.000002 0.000006 58.172257 -14.026865 -6.597481 -0.000002 -0.000008 3.000000 -5.000168 8.000067 -0.000022 -32.500704 -139.611594 4.988033 -179.999991 0.000010 0.182005 129.490824 0.127819 -2.782891 -0.000002 0.000001 -0.392529 79.485903 2.721600 15.761664 25.803345 -7.353838 0.467268 -35.722545 157.872514 3.443237 -0.000020 0.000014 -0.344850 -52.569135 -6.899873 -0.823810 -0.000004 -0.000002 -1.220230 82.333286 -3.234933 -14.993911 25.926835 7.352968 -0.610992 
53.712898 -14.999418 78.951591 5.777255 -3.495768 1.514331 -1.652884 0.149223 0.262087 0.696408 0.293466 0.526950 2.341453 0.299754 0.523394 12.764646 10.284165 -1.100819 -6.422152 -8.474985 -1.172592 -13.896945 -7.833320 -13.800448 -146.052954 -170.724403 -67.851461 0.000000 0.000015 0.000000 56.262187 14.423136 9.085429 0.000001 0.000006 -3.000003 -5.000171 -7.999751 0.000048 -14.125077 19.287769 14.993758 -148.917399 179.692291 83.335903 0.000003 -0.000003 0.000006 57.934566 -14.054992 -6.535974 -0.000002 -0.000006 3.000001 -5.000166 8.000069 -0.000025 -32.374332 -139.695332 4.994543 -179.999991 0.000005 0.167006 129.576775 0.173293 -2.750346 -0.000001 0.000001 -0.371396 79.427935 2.741815 15.669822 25.803854 -7.353849 0.467555 -35.491319 157.757904 3.327467 -0.000020 0.000009 -0.336702 -52.405757 -6.836390 -0.775136 -0.000009 -0.000002 -1.183902 82.284703 -3.215739 -15.031192 25.924313 7.353014 -0.608376 
53.623402 -15.093717 79.136589 5.677878 -3.479298 1.453386 -1.632835 0.146578 0.259069 0.736525 0.288322 0.520824 2.381572 0.294538 0.517332 12.717003 10.330221 -1.093332 -6.451854 -8.562075 -1.170261 -13.909571 -8.009215 -13.838964 -145.848554 -170.529989 -67.740484 0.000001 0.000013 -0.000002 56.225660 14.434737 9.051642 -0.000001 0.000008 -2.999998 -5.000171 -7.999752 0.000045 -14.141011 19.415024 15.025055 -148.839808 179.468630 83.437598 0.000003 -0.000002 0.000007 57.716827 -14.078516 -6.476417 -0.000000 -0.000006 3.000000 -5.000168 8.000071 -0.000023 -32.227776 -139.787717 5.013946 -179.999991 0.000006 0.151994 129.688763 0.203722 -2.722515 0.000002 -0.000001 -0.349797 79.369332 2.765942 15.563582 25.803850 -7.353861 0.467245 -35.258731 157.644823 3.209261 -0.000017 0.000013 -0.331407 -52.218193 -6.768457 -0.727450 -0.000008 -0.000004 -1.152552 82.221722 -3.204078 -15.032280 25.921386 7.353056 -0.605058 
